<svg width="131" height="16" viewBox="0 0 131 16" fill="none" xmlns="http://www.w3.org/2000/svg">
<rect x="0.5" y="0.5" width="22" height="15" rx="2" fill="white" stroke="#E4E4E4"/>
<path fill-rule="evenodd" clip-rule="evenodd" d="M7.02517 10.8389H5.63182L4.58697 6.795C4.53738 6.60898 4.43208 6.44453 4.27718 6.36702C3.89063 6.17223 3.46468 6.01722 3 5.93904V5.78334H5.24458C5.55437 5.78334 5.78671 6.01722 5.82543 6.28883L6.36756 9.20585L7.76023 5.78334H9.11486L7.02517 10.8389ZM9.88932 10.8389H8.57341L9.65698 5.78334H10.9729L9.88932 10.8389ZM12.6754 7.18389C12.7141 6.9116 12.9464 6.75591 13.2175 6.75591C13.6434 6.71682 14.1074 6.795 14.4947 6.98911L14.727 5.90062C14.3398 5.74493 13.9138 5.66675 13.5273 5.66675C12.2501 5.66675 11.3207 6.36702 11.3207 7.33891C11.3207 8.07827 11.979 8.46649 12.4437 8.70036C12.9464 8.93356 13.14 9.08925 13.1013 9.32245C13.1013 9.67225 12.7141 9.82794 12.3275 9.82794C11.8629 9.82794 11.3982 9.71134 10.9729 9.51656L10.7406 10.6057C11.2052 10.7998 11.708 10.878 12.1726 10.878C13.6047 10.9164 14.4947 10.2168 14.4947 9.16676C14.4947 7.8444 12.6754 7.76689 12.6754 7.18389ZM19.1 10.8389L18.0552 5.78334H16.9329C16.7005 5.78334 16.4682 5.93904 16.3907 6.17223L14.4559 10.8389H15.8106L16.081 10.1002H17.7454L17.9003 10.8389H19.1ZM17.1265 7.1448L17.513 9.05016H16.4294L17.1265 7.1448Z" fill="#172B85"/>
<rect x="27.5" y="0.5" width="22" height="15" rx="2" fill="white" stroke="#E4E4E4"/>
<path d="M41.9745 2.99243C44.75 2.99256 46.9999 5.206 46.9999 7.93579C46.9996 10.6654 44.7499 12.878 41.9745 12.8782C40.73 12.8782 39.5915 12.4325 38.7137 11.6956C37.8361 12.4321 36.6982 12.8782 35.454 12.8782C32.6785 12.878 30.4286 10.6646 30.4286 7.93481C30.4289 5.20528 32.6787 2.99262 35.454 2.99243C36.698 2.99243 37.8361 3.43772 38.7137 4.17407C39.5914 3.43741 40.7302 2.99243 41.9745 2.99243Z" fill="#ED0006"/>
<path d="M41.974 2.99243C44.7496 2.99243 47.0004 5.20592 47.0004 7.93579C47.0001 10.6654 44.7495 12.8782 41.974 12.8782C40.7295 12.8781 39.592 12.4315 38.7142 11.6946C39.7939 10.7881 40.4797 9.44139 40.4799 7.93579C40.4799 6.42977 39.7943 5.08166 38.7142 4.17505C39.5919 3.43834 40.7297 2.99247 41.974 2.99243Z" fill="#F9A000"/>
<path d="M38.7141 4.17432C39.7944 5.08085 40.4796 6.42896 40.4797 7.93506C40.4797 9.44114 39.7943 10.7892 38.7141 11.6958C37.6341 10.7892 36.9485 9.44105 36.9485 7.93506C36.9486 6.42905 37.6339 5.08085 38.7141 4.17432Z" fill="#FF5E00"/>
<rect x="54.5" y="0.5" width="22" height="15" rx="2" fill="white" stroke="#E4E4E4"/>
<path d="M66.6364 12.9999C69.3061 13.013 71.7429 10.7708 71.7429 8.04325C71.7429 5.06072 69.3061 2.99889 66.6364 3H64.3387C61.6372 2.99889 59.4133 5.06128 59.4133 8.04325C59.4133 10.7714 61.6372 13.013 64.3387 12.9999H66.6364Z" fill="#0079BE"/>
<path d="M64.3497 3.41333C61.8809 3.41417 59.8806 5.46264 59.8798 7.99094C59.8806 10.519 61.8809 12.5674 64.3497 12.5683C66.8189 12.5674 68.82 10.519 68.8202 7.99094C68.82 5.46264 66.8191 3.41417 64.3497 3.41333ZM61.5165 7.99094C61.516 7.40638 61.6893 6.83525 62.0138 6.3522C62.3384 5.86915 62.799 5.49666 63.3355 5.2834V10.6982C62.7989 10.4851 62.3383 10.1127 62.0137 9.62965C61.6892 9.14663 61.5159 8.5755 61.5165 7.99094ZM65.3637 10.6993V5.28312C65.9006 5.49608 66.3616 5.86854 66.6864 6.35175C67.0111 6.83496 67.1845 7.40639 67.1838 7.99122C67.1844 8.57603 67.011 9.14741 66.6862 9.63059C66.3615 10.1138 65.9006 10.4863 65.3637 10.6993Z" fill="white"/>
<path d="M66.6364 12.9999C69.3061 13.013 71.7429 10.7708 71.7429 8.04325C71.7429 5.06072 69.3061 2.99889 66.6364 3H64.3387C61.6372 2.99889 59.4133 5.06128 59.4133 8.04325C59.4133 10.7714 61.6372 13.013 64.3387 12.9999H66.6364Z" fill="#0079BE"/>
<path d="M64.3497 3.41333C61.8809 3.41417 59.8806 5.46264 59.8798 7.99094C59.8806 10.519 61.8809 12.5674 64.3497 12.5683C66.8189 12.5674 68.82 10.519 68.8202 7.99094C68.82 5.46264 66.8191 3.41417 64.3497 3.41333ZM61.5165 7.99094C61.516 7.40638 61.6893 6.83525 62.0138 6.3522C62.3384 5.86915 62.799 5.49666 63.3355 5.2834V10.6982C62.7989 10.4851 62.3383 10.1127 62.0137 9.62965C61.6892 9.14663 61.5159 8.5755 61.5165 7.99094ZM65.3637 10.6993V5.28312C65.9006 5.49608 66.3616 5.86854 66.6864 6.35175C67.0111 6.83496 67.1845 7.40639 67.1838 7.99122C67.1844 8.57603 67.011 9.14741 66.6862 9.63059C66.3615 10.1138 65.9006 10.4863 65.3637 10.6993Z" fill="white"/>
<rect x="81.5" y="0.5" width="22" height="15" rx="2" fill="#1F72CD" stroke="#E4E4E4"/>
<path fill-rule="evenodd" clip-rule="evenodd" d="M85.1443 5.62036L83 10.576H85.567L85.8853 9.78586H86.6127L86.9309 10.576H89.7565V9.97294L90.0083 10.576H91.4699L91.7217 9.9602V10.576H97.5981L98.3127 9.80638L98.9817 10.576L102 10.5824L99.8489 8.11201L102 5.62036H99.0285L98.333 6.37575L97.685 5.62036H91.2922L90.7432 6.89945L90.1814 5.62036H87.6197V6.2029L87.3348 5.62036H85.1443ZM93.9196 6.32407H97.2941L98.3262 7.48836L99.3916 6.32407H100.424L98.8555 8.11131L100.424 9.87796H99.3448L98.3127 8.70015L97.2419 9.87796H93.9196V6.32407ZM94.7529 7.70948V7.06034V7.05972H96.8585L97.7773 8.09787L96.8178 9.14169H94.7529V8.43301H96.5939V7.70948H94.7529ZM85.641 6.32407H86.8923L88.3146 9.68451V6.32407H89.6853L90.7839 8.73349L91.7964 6.32407H93.1603V9.88006H92.3304L92.3236 7.09361L91.1137 9.88006H90.3713L89.1546 7.09361V9.88006H87.4473L87.1237 9.08285H85.375L85.052 9.87936H84.1372L85.641 6.32407ZM85.6736 8.34589L86.2497 6.92573L86.8251 8.34589H85.6736Z" fill="white"/>
<rect x="108" width="23" height="16" rx="3" fill="white"/>
<rect x="108.5" y="0.5" width="22" height="15" rx="2" fill="white" stroke="#E4E4E4"/>
<path d="M117.35 15.0333L130.017 11.2V13.4833C130.017 14.3393 129.323 15.0333 128.467 15.0333H117.35Z" fill="#FD6020"/>
<path d="M117.456 6.07428C117.7 6.07428 117.979 6.10971 118.188 6.25299V6.96978C118.014 6.75488 117.735 6.61139 117.456 6.61139C116.899 6.64742 116.446 7.14879 116.48 7.72174V7.79303C116.48 8.36609 116.934 8.79592 117.491 8.79596C117.77 8.79596 118.014 8.65246 118.188 8.43756V9.15435C117.945 9.26177 117.701 9.33302 117.422 9.33306C116.551 9.33306 115.854 8.58105 115.854 7.6856C115.854 6.75451 116.55 6.00287 117.456 6.07428ZM122.927 8.22271L123.763 6.07428H124.391L123.101 9.33306H122.787L121.498 6.07428H122.125L122.927 8.22271ZM114.669 6.00201C114.983 6.00201 115.296 6.14552 115.54 6.36041L115.227 6.7901C115.087 6.64684 114.912 6.53912 114.738 6.53912C114.529 6.50364 114.355 6.68283 114.32 6.89752C114.32 7.07661 114.425 7.14878 114.773 7.29205C115.47 7.57853 115.645 7.79307 115.68 8.22271V8.33014C115.645 8.90322 115.191 9.33373 114.634 9.29791C114.216 9.29779 113.798 9.08242 113.589 8.68853L113.972 8.29498C114.076 8.54562 114.321 8.72467 114.6 8.72467H114.634C114.843 8.72467 115.053 8.50955 115.053 8.25885C115.053 8.11557 114.982 8.00822 114.878 7.93658C114.739 7.86495 114.599 7.79271 114.46 7.75689C113.903 7.57781 113.729 7.32731 113.729 6.89752V6.86236C113.763 6.36093 114.181 5.96623 114.669 6.00201ZM111.045 6.07428C111.881 6.1101 112.543 6.82619 112.509 7.6856C112.509 8.1511 112.3 8.58208 111.951 8.90435C111.638 9.15486 111.254 9.29757 110.871 9.26178H110V6.07428H111.045ZM113.345 9.26178H112.753V6.07428H113.345V9.26178ZM126.342 6.61139H125.262V7.32721H126.307V7.86431H125.262V8.72467H126.342V9.26178H124.669V6.07428H126.342V6.61139ZM127.596 6.07428C128.293 6.07428 128.676 6.39702 128.676 7.00592C128.71 7.47123 128.396 7.86498 127.979 7.93658L128.92 9.26178H128.188L127.387 7.97271H127.317V9.26178H126.725V6.07428H127.596ZM110.767 6.61139H110.593V8.72467H110.767C111.045 8.76044 111.359 8.65267 111.568 8.47369C111.777 8.25895 111.882 7.97238 111.882 7.65045C111.882 7.3641 111.777 7.07722 111.568 6.86236C111.359 6.68329 111.045 6.57559 110.767 6.61139ZM127.317 7.54303H127.491C127.874 7.54301 128.049 7.36318 128.049 7.04107C128.049 6.75472 127.874 6.57625 127.491 6.57623H127.317V7.54303Z" fill="black"/>
<path fill-rule="evenodd" clip-rule="evenodd" d="M119.965 6C119.094 6 118.362 6.71636 118.362 7.64763C118.362 8.54308 119.059 9.29525 119.965 9.33107C120.871 9.36689 121.568 8.61471 121.603 7.68344C121.568 6.75218 120.871 6 119.965 6V6Z" fill="#FD6020"/>
</svg>
